<?xml version="1.0" encoding="UTF-8"?>
<!DOCTYPE svg PUBLIC "-//W3C//DTD SVG 1.1//EN" "http://www.w3.org/Graphics/SVG/1.1/DTD/svg11.dtd">
<!-- Creator: CorelDRAW -->
<svg xmlns="http://www.w3.org/2000/svg" xml:space="preserve" width="250mm" height="220mm" version="1.1" style="shape-rendering:geometricPrecision; text-rendering:geometricPrecision; image-rendering:optimizeQuality; fill-rule:evenodd; clip-rule:evenodd"
viewBox="0 0 25000 22000"
 xmlns:xlink="http://www.w3.org/1999/xlink"
 xmlns:xodm="http://www.corel.com/coreldraw/odm/2003">
 <defs>
  <style type="text/css">
   <![CDATA[
    .fil0 {fill:#332C2B;fill-rule:nonzero}
   ]]>
  </style>
 </defs>
 <g id="Layer_x0020_1">
  <metadata id="CorelCorpID_0Corel-Layer"/>
  <path class="fil0" d="M10082.13 5304.6c-70.14,-150.75 -226.13,-270.09 -390.48,-291.03 -1053.14,-134 -2130.35,500.4 -2979.36,1043.72 -105.72,66.99 -209.37,136.09 -313.01,206.23 -315.09,-94.22 -651.14,-145.52 -943.21,-216.7 -711.86,-174.83 -1434.19,-326.62 -2137.68,-532.85 -449.11,-132.95 -1092.92,-331.86 -1286.6,-810.27 -267.99,-662.66 331.86,-1333.7 769.45,-1753.49 986.13,-948.45 2197.35,-1646.7 3505.92,-2043.47 351.75,-106.77 709.77,-191.57 1071.98,-252.28 328.72,-55.48 909.72,-202.05 1123.29,144.46 429.2,695.12 -211.48,1553.54 -610.33,2087.44 -167.49,225.07 344.42,704.53 498.31,498.3 420.83,-564.26 881.45,-1204.93 798.75,-1948.21 -64.91,-576.81 -437.59,-1146.3 -1000.79,-1342.06 -646.96,-225.08 -1502.25,34.54 -2136.65,213.56 -724.42,205.18 -1422.67,503.54 -2071.72,884.59 -634.4,371.63 -1230.05,814.46 -1752.43,1332.65 -473.19,470.03 -921.25,1081.4 -803.99,1785.94 226.11,1361.96 1872.82,1715.8 2983.54,1989.02 481.55,118.3 963.11,236.6 1444.66,354.89 1.04,0 2.09,1.04 3.14,1.04 -169.59,127.72 -336.05,257.54 -499.36,391.54 -429.2,354.88 -920.18,750.59 -914.95,1355.67 2.1,214.61 272.19,467.95 488.89,421.89 651.15,-137.14 1261.46,-407.24 1797.45,-802.94 435.5,-322.44 923.33,-745.36 481.56,-1278.21 -34.55,-41.88 -71.19,-78.52 -110.98,-114.12 37.7,-25.12 74.34,-50.24 113.07,-74.32 785.15,-501.44 1799.54,-1095.02 2769.98,-971.49 167.5,21.99 146.57,-185.29 101.55,-279.5l0 0zm-3350.99 1783.84c-410.37,416.65 -897.16,731.75 -1431.06,946.36 192.62,-217.75 445.97,-401.99 645.92,-564.26 254.38,-206.23 516.1,-403.03 783.04,-591.47 163.31,65.95 125.63,83.75 2.1,209.37l0 0zm7597.04 -1873.88c-548.55,302.55 -1209.12,600.9 -1718.94,1026.97 171.69,-455.38 328.72,-918.09 465.86,-1386.04 59.66,-202.04 -331.86,-649.05 -526.57,-452.24 -410.37,412.47 -847.96,795.61 -1319.05,1138.98 -241.82,176.92 -492.01,347.56 -750.59,500.4 -154.94,91.07 -352.79,207.28 -551.69,251.24 84.79,-345.46 246,-665.8 474.23,-948.45 174.82,-216.69 -333.95,-702.44 -498.31,-498.3 -358.02,445.95 -557.97,955.77 -608.23,1525.27 -13.61,151.8 166.45,335 289.98,390.48 654.29,292.07 1236.34,-106.79 1774.43,-464.81 248.11,-166.45 487.83,-342.32 720.23,-528.66 -198.9,531.8 -420.83,1054.18 -666.85,1565.05 -101.54,100.5 -203.09,202.04 -303.58,303.59 -410.37,416.65 -811.32,849 -1163.06,1315.89 -400.94,529.72 -753.73,1149.46 -565.3,1830.96 35.59,128.77 374.77,523.43 524.47,326.62 786.19,-1031.15 1464.55,-2136.63 2027.76,-3299.69 820.74,-806.09 1708.47,-1587.04 2696.71,-2174.33 264.85,-157.02 -83.75,-543.32 -301.5,-422.93l0 0zm2028.81 59.67c-501.44,425.03 -1532.6,976.72 -1968.08,1054.19 15.7,-46.06 32.45,-93.17 50.24,-139.23 128.77,-341.27 288.94,-653.24 472.14,-968.34 124.58,-214.61 -398.85,-674.18 -553.79,-406.18 -232.41,398.85 -590.43,942.17 -578.92,1417.44 10.47,415.6 409.33,806.08 829.12,721.29 367.44,-74.33 713.95,-325.58 1018.59,-531.81 378.96,-255.44 742.22,-534.94 1090.82,-830.16 199.95,-169.59 -147.61,-497.26 -360.12,-317.2l0 0zm-917.04 -1123.27c140.28,-460.62 325.57,-900.3 556.93,-1323.23 119.34,-218.79 -407.23,-676.27 -554.84,-406.18 -231.35,422.93 -416.64,862.61 -556.92,1323.23 -75.38,247.06 470.03,681.51 554.83,406.18l0 0zm2384.74 2023.58c-334.99,-218.8 -665.8,-262.77 -1009.17,-206.24 202.04,-419.79 432.36,-827.01 685.69,-1218.54 153.89,-236.59 -362.21,-706.63 -497.25,-498.3 -631.25,972.53 -1137.93,2028.8 -1409.07,3159.42 -238.68,989.27 -525.53,2382.64 504.58,3014.94 61.76,37.69 186.34,67 243.93,3.14 549.6,-614.51 709.76,-1415.35 809.21,-2209.92 72.24,-583.09 102.6,-1190.28 -206.23,-1640.42 249.15,-84.8 529.71,-141.33 741.17,-2.09 392.57,256.47 433.41,-207.28 137.14,-401.99l0 0zm-1191.32 1291.82c-27.22,302.54 -63.86,606.12 -117.25,904.48 -91.07,502.49 -239.73,992.42 -543.32,1401.74 -106.77,-300.45 -7.33,-868.89 14.66,-1065.7 60.72,-517.15 180.05,-1026.97 339.18,-1522.13 55.49,-171.69 117.25,-341.28 182.15,-509.82 203.1,154.93 143.42,579.96 124.58,791.43l0 0zm6596.25 -2236.09c-403.04,366.4 -1540.98,1216.45 -2184.79,1293.92 -9.42,1.05 -17.8,3.14 -26.18,4.19 32.46,-164.36 59.68,-320.34 119.35,-487.84 57.57,-162.27 114.11,-321.39 136.09,-490.98 13.61,-26.17 15.7,-59.67 7.33,-97.36 -7.33,-113.06 -123.53,-249.15 -249.15,-331.86 -79.57,-56.52 -166.45,-88.97 -239.74,-70.13 -61.76,15.7 -121.43,34.54 -180.06,55.48 -301.49,-397.81 -850.04,-475.27 -1274.02,-159.13 -534.94,398.86 -883.54,1060.48 -1025.92,1700.1 -47.1,206.23 253.34,569.5 479.46,479.47 652.19,-255.43 1127.47,-812.37 1700.09,-1192.38 -55.48,181.11 -84.79,365.36 -24.07,567.4 92.13,302.54 362.21,563.22 681.5,600.9 317.2,36.64 632.31,-134 895.06,-289.98 569.5,-340.23 1075.12,-779.91 1565.05,-1223.78 196.81,-179.01 -174.82,-543.32 -380,-358.02l0 0zm-3875.47 718.14c4.19,-5.23 8.38,-11.52 12.57,-16.75 113.06,-150.75 240.77,-297.31 386.28,-419.78 92.13,-77.48 195.77,-160.17 315.11,-188.44 41.87,-6.28 82.7,-13.61 123.53,-20.93 4.19,1.04 6.28,2.09 9.42,3.14 -301.49,181.1 -571.59,416.64 -846.91,642.76l0 0zm-15999.12 13025.85c611.37,-185.29 1211.21,-409.32 1783.84,-689.88 1085.6,-531.8 2170.14,-1291.82 2809.76,-2339.73 314.06,-514.01 377.92,-1091.87 -11.51,-1583.89 -324.53,-408.27 -831.2,-590.43 -1334.74,-648 -1237.38,-140.28 -2626.56,217.74 -3761.36,683.6 -680.46,280.55 -1329.5,641.72 -1927.27,1071.98 -538.08,387.33 -1137.92,888.78 -839.58,1610.06 109.93,266.95 666.85,436.54 492.03,10.47 -190.53,-461.67 639.63,-978.81 933.79,-1185.04 455.39,-320.34 943.23,-594.61 1450.95,-824.93 996.6,-450.14 2074.87,-729.66 3166.74,-798.75 419.79,-27.21 911.81,-55.48 1297.05,146.57 524.48,275.31 67.01,1008.11 -174.82,1327.4 -611.36,803.99 -1434.19,1424.78 -2327.16,1885.4 -507.73,261.72 -1038.48,476.32 -1579.71,658.47 -117.25,38.73 -254.39,91.07 -400.94,144.47 401.99,-944.27 892.97,-1849.8 1469.78,-2702.99 158.08,-233.45 -356.98,-706.63 -498.3,-498.31 -720.24,1066.75 -1313.8,2207.83 -1769.19,3404.39 -164.36,13.61 -319.29,0 -453.29,-57.58 -31.41,-35.6 -62.81,-70.14 -93.17,-106.78 -171.68,-205.18 -700.35,260.66 -523.43,471.09 216.7,258.57 458.53,500.4 716.05,726.52 -130.86,428.16 -244.96,862.61 -340.23,1301.24 -55.48,254.39 495.17,676.27 553.79,406.18 93.17,-427.12 204.13,-851.09 330.81,-1268.79 413.51,307.77 851.09,584.15 1286.59,831.2 1136.88,645.92 2449.65,1142.13 3777.05,1045.81 166.46,-11.51 325.58,-123.53 405.15,-270.08 50.24,-91.08 83.74,-297.31 -86.9,-284.75 -1291.82,94.21 -2554.33,-394.66 -3660.86,-1023.83 -510.87,-289.98 -1022.78,-620.79 -1491.77,-999.75 29.32,-82.7 57.58,-165.4 88.98,-248.1 241.82,-46.06 482.61,-123.53 711.87,-193.67l0 0zm5342.11 -243.92c-501.44,425.03 -1532.6,976.72 -1968.09,1054.18 15.7,-46.06 32.45,-93.16 50.25,-139.22 128.76,-341.28 288.93,-653.24 472.13,-968.35 124.58,-214.6 -398.85,-674.18 -553.78,-406.17 -232.41,398.84 -590.44,942.16 -578.92,1417.44 10.47,415.6 409.33,806.07 829.11,721.28 367.45,-74.32 713.96,-325.57 1018.6,-531.8 378.96,-255.44 742.22,-534.94 1090.82,-830.16 199.95,-169.59 -147.61,-497.26 -360.12,-317.2l0 0zm-917.04 -1123.27c140.28,-460.63 325.57,-900.3 556.92,-1323.24 119.35,-218.79 -407.22,-676.27 -554.83,-406.17 -231.35,422.92 -416.64,862.61 -556.93,1323.23 -75.38,247.05 470.04,681.5 554.84,406.18l0 0zm5245.8 -3687.03c-23.03,-7.33 -45.02,-10.47 -65.95,-11.52 -1.05,0 -2.1,0 -3.14,0 -49.2,0 -92.13,18.84 -122.49,60.72 -5.23,7.32 -9.42,15.7 -13.61,24.07 -752.68,1486.54 -1546.2,2989.82 -2580.5,4303.64 -37.68,48.15 -75.37,95.25 -114.1,142.37 -313.01,-286.84 -785.15,-316.15 -1160.97,-36.65 -534.94,398.86 -883.55,1060.48 -1025.92,1700.1 -47.11,210.42 252.3,563.21 480.51,479.46 783.04,-284.75 1412.21,-769.43 1951.34,-1354.63 -181.11,457.48 -352.79,918.09 -510.87,1384.99 -82.69,243.92 460.62,682.55 554.83,406.18 777.83,-2294.71 1867.6,-4461.7 2959.47,-6619.27 7.33,-14.67 12.56,-29.32 14.66,-45.02 23.03,-157.03 -185.3,-383.15 -363.26,-434.44l0 0zm-4217.79 5751.43c55.49,-97.36 116.21,-192.62 185.29,-283.7 113.07,-150.75 241.83,-297.31 386.3,-419.79 92.12,-77.47 195.76,-160.17 315.1,-188.43 41.88,-6.28 82.71,-13.61 124.58,-20.94 10.47,3.14 20.93,6.28 30.35,8.38 -307.77,346.51 -649.05,667.88 -1041.62,904.48l0 0zm6335.59 -1958.67c-116.21,415.6 -273.24,815.5 -478.42,1195.5 -48.15,87.95 -364.3,664.76 -602.98,880.41 18.84,-162.25 63.85,-350.7 72.22,-416.64 35.6,-285.8 88.98,-567.4 150.75,-849.01 43.97,-195.76 -325.57,-656.38 -525.52,-452.23 -368.49,375.82 -736.98,751.64 -1104.44,1127.46 -142.36,145.51 -287.88,324.52 -451.19,477.37 15.7,-30.36 30.36,-55.49 39.78,-74.34 125.63,-243.91 282.65,-464.79 461.67,-673.12 179.01,-211.47 -326.62,-700.35 -498.31,-498.3 -308.82,361.16 -600.9,805.03 -728.61,1267.74 -93.17,336.04 54.43,796.65 453.28,859.47 414.57,64.9 797.71,-428.17 1044.77,-680.46 180.06,-184.24 361.16,-368.49 541.22,-552.74 -11.51,135.05 -15.7,267.99 -9.42,398.85 14.66,363.26 324.53,764.2 720.24,715.01 414.56,-52.34 695.11,-617.64 884.6,-936.94 256.48,-433.4 449.1,-896.11 585.19,-1381.85 70.13,-250.21 -477.37,-680.46 -554.83,-406.18l0 0zm5162.04 973.57c-403.03,366.4 -1540.97,1216.45 -2184.78,1293.93 -9.42,1.04 -17.81,3.14 -26.18,4.18 32.46,-164.35 59.68,-320.34 119.34,-487.84 57.58,-162.26 114.11,-321.38 136.1,-490.97 13.6,-26.17 15.7,-59.67 7.32,-97.37 -7.32,-113.05 -123.53,-249.14 -249.14,-331.85 -79.57,-56.53 -166.45,-88.98 -239.74,-70.14 -61.76,15.71 -121.44,34.55 -180.06,55.48 -301.5,-397.8 -850.05,-475.26 -1274.02,-159.12 -534.94,398.86 -883.55,1060.48 -1025.92,1700.1 -47.11,206.23 253.33,569.5 479.46,479.46 652.19,-255.42 1127.46,-812.36 1700.09,-1192.37 -55.48,181.11 -84.79,365.35 -24.08,567.4 92.13,302.54 362.21,563.21 681.51,600.9 317.2,36.63 632.3,-134 895.06,-289.99 569.5,-340.22 1075.12,-779.9 1565.05,-1223.77 196.81,-179.01 -174.82,-543.32 -380.01,-358.03l0 0zm-3875.46 718.15c4.19,-5.24 8.38,-11.52 12.56,-16.75 113.07,-150.75 240.78,-297.31 386.29,-419.79 92.13,-77.47 195.76,-160.17 315.11,-188.43 41.87,-6.28 82.69,-13.61 123.53,-20.94 4.19,1.05 6.28,2.1 9.42,3.14 -301.5,181.11 -571.59,416.65 -846.91,642.77l0 0zm8235.62 -733.85c-734.9,346.51 -1549.35,680.46 -2295.76,1054.19 154.93,-313.02 315.1,-621.83 503.54,-927.52 135.04,-219.84 -215.65,-599.85 -452.24,-526.56 -564.25,176.91 -1095.02,436.53 -1576.57,767.34 7.33,-13.61 14.66,-27.22 21.99,-39.78 122.48,-216.7 -403.04,-675.23 -553.79,-406.18 -277.42,492.02 -539.13,1018.59 -679.41,1567.15 -49.21,192.62 346.51,667.88 526.57,452.23 456.42,-547.5 999.75,-996.61 1612.16,-1333.69 -107.83,208.33 -191.58,421.88 -224.03,634.39 -57.58,368.5 292.07,724.43 662.66,637.54 378.96,-87.94 739.08,-374.77 1062.56,-575.77 522.38,-323.48 1045.81,-648 1602.74,-909.72 272.18,-128.76 20.93,-502.5 -210.42,-393.62l0 0zm-11709.39 -6227.04c-100.47,79.65 -195.5,171.07 -290.54,262.48 -124.9,-471.56 -199.12,-954.89 -184.64,-1442.75 81.45,-95.03 162.01,-190.06 238.04,-285.11 371.1,-461.6 1073.47,-1313.32 386.48,-1812.93 -705.99,-513.21 -1007.38,909.63 -1072.55,1348.61 -19.01,129.43 -31.68,259.77 -38.02,389.2 -281.49,334.89 -563.89,669.78 -780.21,1052.65 -325.84,576.55 -440.79,1337.76 252.53,1696.18 420.87,218.14 779.31,110.42 1105.15,-104.09 47.06,45.26 103.18,79.65 163.82,91.42 113.14,20.81 219.04,-38.01 171.06,-171.07 -17.19,-45.26 -33.49,-91.41 -48.87,-136.67 181.02,-152.96 355.7,-319.51 527.68,-457.08 175.59,-140.3 -240.76,-582 -429.93,-430.84l0 0zm-1370.34 821.85c-226.28,-38.93 -166.54,-284.2 -114.05,-460.7 112.24,-372 323.12,-698.76 562.98,-1005.59 55.22,412.73 157.5,820.04 287.83,1217.38 -85.99,66.97 -176.5,126.71 -275.15,172.87 -140.29,66.08 -307.74,102.28 -461.61,76.04l0 0z"/>
 </g>
</svg>
