<?xml version="1.0" encoding="UTF-8"?>
<!DOCTYPE svg PUBLIC "-//W3C//DTD SVG 1.1//EN" "http://www.w3.org/Graphics/SVG/1.1/DTD/svg11.dtd">
<!-- Creator: CorelDRAW -->
<svg xmlns="http://www.w3.org/2000/svg" xml:space="preserve" width="255mm" height="20mm" version="1.1" style="shape-rendering:geometricPrecision; text-rendering:geometricPrecision; image-rendering:optimizeQuality; fill-rule:evenodd; clip-rule:evenodd"
viewBox="0 0 25500 2000"
 xmlns:xlink="http://www.w3.org/1999/xlink"
 xmlns:xodm="http://www.corel.com/coreldraw/odm/2003">
 <defs>
  <style type="text/css">
   <![CDATA[
    .fil0 {fill:#332C2B;fill-rule:nonzero}
   ]]>
  </style>
 </defs>
 <g id="Layer_x0020_1">
  <metadata id="CorelCorpID_0Corel-Layer"/>
  <path class="fil0" d="M339.38 766.45l-340.18 -200.89c66.06,-157.15 165.18,-279.03 297.32,-365.64 132.15,-86.61 283.94,-129.91 455.37,-129.91 105.36,0 199.12,13.38 281.26,40.17 82.15,26.79 147.33,62.96 195.54,108.49 48.22,45.53 84.38,94.2 108.49,145.98 24.11,51.8 36.17,105.36 36.17,160.73 0,87.5 -26.8,172.77 -80.36,255.81 -53.58,83.04 -120.55,155.36 -200.91,216.97 -80.35,61.6 -170.98,124.11 -271.88,187.51 -100.89,63.39 -196.44,120.98 -286.62,172.76 -90.18,51.8 -173.66,108.05 -250.46,168.76 -76.78,60.72 -129.46,118.75 -158.03,174.11l822.34 0c39.3,0 66.08,0 80.37,0 14.28,0 33.48,-2.68 57.59,-8.03 24.1,-5.36 42.85,-13.83 56.25,-25.45 13.39,-11.6 28.57,-27.68 45.54,-48.21 16.96,-20.54 35.26,-46.88 54.91,-79.02l50.9 -91.08 40.18 0 -88.4 452.69c-3.58,16.08 -11.61,29.03 -24.11,38.85 -12.5,9.81 -27.68,14.73 -45.54,14.73l-1127.71 0 0 -182.15c0,-69.64 16.52,-138.39 49.55,-206.26 33.04,-67.86 76.35,-130.36 129.91,-187.5 53.58,-57.15 113.4,-113.85 179.48,-170.1 66.07,-56.25 133.48,-111.61 202.24,-166.08 68.75,-54.46 133.03,-108.93 192.86,-163.39 59.82,-54.47 112.5,-112.95 158.05,-175.46 45.53,-62.5 75.44,-125.9 89.73,-190.18 14.28,-42.86 17.85,-88.4 10.71,-136.61 -7.14,-48.22 -20.54,-91.97 -40.18,-131.26 -19.64,-39.28 -52.68,-71.87 -99.11,-97.77 -46.43,-25.89 -102.68,-38.84 -168.76,-38.84 -103.57,0 -196.43,31.26 -278.58,93.76 -82.14,62.5 -135.71,142.41 -160.72,239.74 -25,97.32 -16.07,204.91 26.79,322.77zm1245.57 1146.47l24.11 0c44.65,0 83.04,-16.07 115.18,-48.22 32.15,-32.14 48.22,-71.43 48.22,-117.86l0 -1275.04c0,-46.43 -16.07,-85.72 -48.22,-117.86 -32.14,-32.14 -70.53,-48.22 -115.18,-48.22l-24.11 0 0 -42.85c55.36,0 112.51,-12.5 171.44,-37.5 58.93,-25 121.43,-56.26 187.5,-93.76 66.08,-37.5 119.66,-63.4 160.72,-77.68l42.87 0 0 1692.91c0,46.43 16.06,85.72 48.21,117.86 32.14,32.15 71.43,48.22 117.86,48.22l24.11 0 0 42.86 -752.71 0 0 -42.86zm2670.63 42.86l-752.71 0 0 -42.86 24.1 0c44.65,0 83.05,-16.07 115.19,-48.22 32.14,-32.14 48.22,-71.43 48.22,-117.86l0 -1457.19c0,-46.43 -16.08,-85.71 -48.22,-117.86 -32.14,-32.15 -70.54,-48.22 -115.19,-48.22l-24.1 0 0 -42.86 752.71 0c144.64,0 276.34,26.8 395.1,80.36 118.75,53.58 214.29,124.57 286.61,212.96 72.33,88.4 128.58,188.4 168.76,300.01 40.18,111.61 60.71,226.34 61.6,344.21 0.9,117.86 -18.3,232.6 -57.58,344.2 -39.29,111.61 -95.55,211.62 -168.76,300.02 -73.22,88.4 -169.2,159.38 -287.96,212.95 -118.75,53.57 -251.34,80.36 -397.77,80.36zm0 -1832.21l-24.12 0c-46.43,0 -85.71,16.07 -117.86,48.22 -32.15,32.15 -48.21,71.43 -48.21,117.86l0 1457.19c0,46.43 16.06,85.72 48.21,117.86 32.15,32.15 71.43,48.22 117.86,48.22l24.12 0c89.28,0 170.53,-25.89 243.75,-77.68 73.22,-51.79 132.15,-119.2 176.79,-202.24 44.64,-83.04 79.02,-178.13 103.13,-285.28 24.11,-107.15 36.16,-216.97 36.16,-329.47 0,-112.5 -12.05,-222.33 -36.16,-329.48 -24.11,-107.14 -58.49,-202.24 -103.13,-285.27 -44.64,-83.05 -103.57,-150.46 -176.79,-202.24 -73.22,-51.79 -154.47,-77.69 -243.75,-77.69zm1025.92 1832.21l0 -42.86 24.1 0c44.65,0 83.04,-16.07 115.19,-48.22 32.14,-32.14 48.22,-71.43 48.22,-117.86l0 -1457.19c0,-46.43 -16.08,-85.71 -48.22,-117.86 -32.15,-32.15 -70.54,-48.22 -115.19,-48.22l-24.1 0 0 -42.86c119.64,0 569.66,0 1350.04,0 35.71,0 58.04,17.87 66.96,53.58l69.65 291.97 -40.18 0 -66.97 -117.86c-46.43,-78.57 -88.39,-129.01 -125.89,-151.34 -37.5,-22.32 -95.54,-33.49 -174.12,-33.49l-350.9 0c-46.43,0 -85.72,16.07 -117.86,48.22 -32.15,32.15 -48.22,71.43 -48.22,117.86l0 750.03 441.99 0c44.63,0 77.68,-15.18 99.11,-45.54 21.42,-30.36 27.67,-65.18 18.75,-104.47l-21.43 -99.1 40.18 0 144.64 487.51 -42.86 0 -45.53 -85.72c-37.5,-73.22 -96.43,-109.82 -176.8,-109.82l-458.05 0 0 664.3c0,46.43 16.07,85.72 48.22,117.86 32.14,32.15 71.43,48.22 117.86,48.22l420.55 0c78.57,0 136.61,-11.16 174.11,-33.49 37.5,-22.31 79.47,-72.76 125.9,-151.34l66.96 -117.86 40.19 0 -69.65 291.97c-8.93,35.72 -31.25,53.58 -66.97,53.58 -819.67,0 -1292.89,0 -1419.68,0zm2981.35 -1350.04l-13.4 37.5 -64.28 -32.15 37.5 -91.08c16.06,-50 22.31,-93.75 18.74,-131.25 -3.57,-37.5 -19.19,-70.98 -46.87,-100.44 -27.69,-29.47 -58.94,-54.03 -93.75,-73.67 -34.83,-19.64 -75.01,-36.16 -120.55,-49.56 -45.53,-13.39 -87.95,-23.21 -127.23,-29.46 -39.29,-6.25 -77.68,-10.27 -115.19,-12.06 -80.35,-3.56 -150.9,8.49 -211.61,36.17 -60.72,27.68 -104.47,62.95 -131.25,105.81 -26.79,42.85 -36.61,91.52 -29.47,145.98 7.14,54.47 33.93,104.03 80.36,148.66 41.07,39.3 98.66,80.82 172.77,124.57 74.11,43.74 147.33,83.03 219.66,117.86 72.32,34.82 147.76,75.89 226.34,123.21 78.58,47.33 146.88,94.65 204.91,141.98 58.05,47.31 105.82,105.8 143.32,175.44 37.49,69.65 56.24,144.65 56.24,225.01 -1.78,83.93 -23.21,158.93 -64.28,225.01 -41.07,66.07 -94.2,118.75 -159.38,158.04 -65.18,39.29 -136.16,68.75 -212.96,88.4 -76.78,19.64 -154.46,29.47 -233.04,29.47 -51.78,0 -111.16,-3.58 -178.13,-10.72 -66.96,-7.15 -140.18,-19.2 -219.65,-36.16 -79.47,-16.97 -148.67,-42.42 -207.6,-76.35 -58.93,-33.93 -92.85,-74.1 -101.78,-120.53l-75.01 -356.27 75.01 0 48.22 91.08c146.43,289.29 356.25,438.4 629.48,447.33 96.43,3.57 176.79,-12.05 241.07,-46.88 64.3,-34.81 106.26,-78.56 125.91,-131.25 19.64,-52.68 24.1,-109.37 13.39,-170.09 -10.72,-60.72 -36.61,-116.97 -77.68,-168.76 -37.5,-46.43 -91.97,-93.31 -163.4,-140.63 -71.43,-47.33 -145.09,-88.84 -220.99,-124.56 -75.9,-35.71 -154.47,-76.78 -235.73,-123.21 -81.24,-46.43 -153.12,-92.42 -215.62,-137.95 -62.5,-45.54 -114.3,-100.46 -155.37,-164.74 -41.07,-64.29 -61.61,-133.05 -61.61,-206.26 0,-76.78 22.33,-144.65 66.97,-203.58 44.64,-58.93 103.57,-103.58 176.79,-133.93 73.22,-30.36 148.22,-52.68 225.01,-66.96 76.79,-14.3 156.26,-21.43 238.4,-21.43 89.29,0 177.68,9.37 265.18,28.12 87.51,18.76 153.58,35.71 198.23,50.89 44.65,15.18 90.18,19.2 136.61,12.06 46.43,-7.14 88.4,-33.04 125.9,-77.69l66.96 0c-5.35,8.93 -26.33,48.23 -62.95,117.86 -36.6,69.65 -62.5,119.65 -77.68,150.01 -15.18,30.37 -35.26,71.88 -60.26,124.56 -25,52.68 -43.75,96.88 -56.25,132.6zm401.79 1350.04l0 -42.86 24.1 0c44.65,0 83.04,-16.07 115.19,-48.22 32.14,-32.14 48.22,-71.43 48.22,-117.86l0 -1457.19c0,-46.43 -16.08,-85.71 -48.22,-117.86 -32.15,-32.15 -70.54,-48.22 -115.19,-48.22l-24.1 0 0 -42.86c119.64,0 569.66,0 1350.04,0 35.71,0 58.04,17.87 66.96,53.58l69.65 291.97 -40.18 0 -66.97 -117.86c-46.43,-78.57 -88.39,-129.01 -125.89,-151.34 -37.5,-22.32 -95.54,-33.49 -174.11,-33.49l-350.91 0c-46.43,0 -85.71,16.07 -117.86,48.22 -32.15,32.15 -48.22,71.43 -48.22,117.86l0 750.03 441.99 0c44.63,0 77.68,-15.18 99.11,-45.54 21.42,-30.36 27.67,-65.18 18.75,-104.47l-21.43 -99.1 40.18 0 144.64 487.51 -42.86 0 -45.53 -85.72c-37.5,-73.22 -96.43,-109.82 -176.79,-109.82l-458.06 0 0 664.3c0,46.43 16.07,85.72 48.22,117.86 32.15,32.15 71.43,48.22 117.86,48.22l420.55 0c78.57,0 136.61,-11.16 174.11,-33.49 37.5,-22.31 79.47,-72.76 125.9,-151.34l66.97 -117.86 40.18 0 -69.65 291.97c-8.93,35.72 -31.25,53.58 -66.96,53.58 -819.68,0 -1292.9,0 -1419.69,0zm1692.91 0l0 -42.86 24.1 0c44.65,0 83.05,-16.07 115.19,-48.22 32.14,-32.14 48.22,-71.43 48.22,-117.86l0 -1457.19c0,-41.07 -17.42,-79.01 -52.24,-113.84 -34.82,-34.82 -71.87,-52.24 -111.17,-52.24l-24.1 0 0 -42.86 219.64 0c91.08,0 166.53,26.8 226.36,80.36 59.82,53.58 112.05,129.48 156.7,227.69l498.23 1090.22 508.95 -1398.27 519.65 0 0 42.86 -24.1 0c-44.65,0 -83.49,16.07 -116.53,48.22 -33.03,32.15 -49.55,71.43 -49.55,117.86l0 1457.19c0,46.43 16.52,85.72 49.55,117.86 33.04,32.15 71.88,48.22 116.53,48.22l24.1 0 0 42.86 -752.7 0 0 -42.86 24.11 0c44.64,0 83.04,-16.07 115.18,-48.22 32.14,-32.14 48.21,-71.43 48.21,-117.86l0 -1419.69 -573.23 1585.77 -48.21 0 -709.85 -1569.69 0 1403.61c0,46.43 16.07,85.72 48.22,117.86 32.14,32.15 70.53,48.22 115.18,48.22l24.11 0 0 42.86 -420.55 0zm3104.56 -958.97l-273.22 0 0 750.03c0,46.43 16.07,85.72 48.22,117.86 32.14,32.15 71.43,48.22 117.86,48.22l117.86 0c60.71,0 115.63,-16.97 164.74,-50.89 49.1,-33.93 87.5,-77.68 115.18,-131.26 27.68,-53.57 48.67,-112.95 62.95,-178.13 14.28,-65.18 16.07,-130.36 5.35,-195.54 -10.71,-65.18 -29.01,-124.56 -54.91,-178.13 -25.89,-53.58 -65.18,-97.33 -117.86,-131.26 -52.67,-33.93 -114.74,-50.9 -186.17,-50.9zm-83.03 -873.24l-24.11 0c-46.43,0 -85.72,16.07 -117.86,48.22 -32.15,32.15 -48.22,71.43 -48.22,117.86l0 664.31 190.19 0c71.43,0 135.27,-15.18 191.52,-45.53 56.26,-30.36 98.22,-70.1 125.89,-119.21 27.68,-49.1 47.33,-103.13 58.93,-162.06 11.62,-58.93 9.83,-117.86 -5.35,-176.78 -15.18,-58.93 -37.05,-112.96 -65.63,-162.06 -28.57,-49.12 -70.08,-88.85 -124.55,-119.21 -54.47,-30.35 -114.74,-45.54 -180.81,-45.54zm-752.71 1832.21l0 -42.86 24.11 0c44.64,0 83.04,-16.07 115.19,-48.22 32.13,-32.14 48.21,-71.43 48.21,-117.86l0 -1457.19c0,-46.43 -16.08,-85.71 -48.21,-117.86 -32.15,-32.15 -70.55,-48.22 -115.19,-48.22l-24.11 0 0 -42.86 873.24 0c101.8,0 191.08,19.2 267.87,57.6 76.79,38.39 134.38,87.5 172.77,147.33 38.4,59.81 62.06,125.89 70.99,198.22 8.92,72.32 1.34,141.07 -22.76,206.25 -24.12,65.18 -66.53,124.11 -127.25,176.79 -60.71,52.68 -133.93,88.85 -219.64,108.49 196.43,8.92 336.61,82.15 420.54,219.65 48.23,80.36 72.33,166.97 72.33,259.83 0,92.86 -24.1,178.57 -72.33,257.15 -46.42,78.58 -110.27,138.85 -191.52,180.81 -81.26,41.97 -169.2,62.95 -263.85,62.95l-980.39 0zm1625.95 0l0 -42.86 24.1 0c44.65,0 83.05,-16.07 115.19,-48.22 32.14,-32.14 48.22,-71.43 48.22,-117.86l0 -1457.19c0,-46.43 -16.08,-85.71 -48.22,-117.86 -32.14,-32.15 -70.54,-48.22 -115.19,-48.22l-24.1 0 0 -42.86c119.65,0 569.66,0 1350.04,0 35.72,0 58.04,17.87 66.97,53.58l69.64 291.97 -40.18 0 -66.96 -117.86c-46.43,-78.57 -88.4,-129.01 -125.9,-151.34 -37.5,-22.32 -95.53,-33.49 -174.11,-33.49l-350.91 0c-46.43,0 -85.71,16.07 -117.86,48.22 -32.15,32.15 -48.21,71.43 -48.21,117.86l0 750.03 441.98 0c44.64,0 77.68,-15.18 99.11,-45.54 21.42,-30.36 27.67,-65.18 18.75,-104.47l-21.43 -99.1 40.18 0 144.65 487.51 -42.87 0 -45.53 -85.72c-37.5,-73.22 -96.43,-109.82 -176.79,-109.82l-458.05 0 0 664.3c0,46.43 16.06,85.72 48.21,117.86 32.15,32.15 71.43,48.22 117.86,48.22l420.56 0c78.56,0 136.61,-11.16 174.11,-33.49 37.5,-22.31 79.46,-72.76 125.89,-151.34l66.97 -117.86 40.18 0 -69.65 291.97c-8.93,35.72 -31.25,53.58 -66.96,53.58 -819.67,0 -1292.9,0 -1419.69,0zm2558.12 -1832.21l-136.61 0c-46.44,0 -85.72,16.07 -117.87,48.22 -32.14,32.15 -48.21,71.43 -48.21,117.86l0 750.03 302.69 0c66.08,0 124.11,-22.77 174.11,-68.3 50,-45.55 85.71,-102.25 107.15,-170.1 21.43,-67.86 32.14,-141.08 32.14,-219.65 0,-78.58 -10.71,-151.8 -32.14,-219.65 -21.44,-67.86 -57.15,-124.56 -107.15,-170.09 -50,-45.55 -108.03,-68.32 -174.11,-68.32zm-865.21 1789.35l24.1 0c44.65,0 83.05,-16.07 115.19,-48.22 32.14,-32.14 48.22,-71.43 48.22,-117.86l0 -1457.19c0,-46.43 -16.08,-85.71 -48.22,-117.86 -32.14,-32.15 -70.54,-48.22 -115.19,-48.22l-24.1 0 0 -42.86 967 0c94.65,0 182.6,21 263.84,62.96 81.25,41.97 146,102.23 194.21,180.8 46.42,78.58 69.64,164.29 69.64,257.16 0,92.86 -23.22,179.47 -69.64,259.82 -73.22,119.65 -192.87,192.87 -358.95,219.66 178.58,0 305.37,102.68 380.37,308.04l107.15 291.97c1.79,3.58 3.58,9.83 5.36,18.75 23.22,62.51 40.62,106.71 52.23,132.6 11.61,25.9 26.34,49.11 44.2,69.65 17.86,20.53 39.29,30.8 64.29,30.8l24.11 0 0 42.86 -243.76 0c-123.21,0 -215.19,-79.47 -275.9,-238.41l-112.5 -289.29c-3.58,-8.93 -8.04,-21.43 -13.4,-37.5 -17.85,-42.86 -30.8,-75 -38.84,-96.43 -8.04,-21.43 -20.54,-48.21 -37.51,-80.36 -16.95,-32.15 -33.03,-55.8 -48.21,-70.98 -15.17,-15.19 -33.92,-29.02 -56.25,-41.52 -22.32,-12.5 -46.88,-18.75 -73.66,-18.75l-281.26 0 0 664.3c0,46.43 16.07,85.72 48.21,117.86 32.15,32.15 71.43,48.22 117.87,48.22l24.11 0 0 42.86 -752.71 0 0 -42.86zm3209.03 -1146.47l-340.19 -200.89c66.07,-157.15 165.18,-279.03 297.33,-365.64 132.14,-86.61 283.94,-129.91 455.37,-129.91 105.36,0 199.12,13.38 281.26,40.17 82.14,26.79 147.32,62.96 195.54,108.49 48.21,45.53 84.38,94.2 108.49,145.98 24.1,51.8 36.17,105.36 36.17,160.73 0,87.5 -26.8,172.77 -80.37,255.81 -53.57,83.04 -120.54,155.36 -200.9,216.97 -80.35,61.6 -170.98,124.11 -271.88,187.51 -100.9,63.39 -196.44,120.98 -286.62,172.76 -90.18,51.8 -173.66,108.05 -250.46,168.76 -76.78,60.72 -129.46,118.75 -158.03,174.11l822.34 0c39.3,0 66.08,0 80.36,0 14.29,0 33.49,-2.68 57.6,-8.03 24.1,-5.36 42.85,-13.83 56.25,-25.45 13.39,-11.6 28.57,-27.68 45.53,-48.21 16.97,-20.54 35.27,-46.88 54.92,-79.02l50.89 -91.08 40.18 0 -88.39 452.69c-3.58,16.08 -11.61,29.03 -24.11,38.85 -12.5,9.81 -27.69,14.73 -45.54,14.73l-1127.71 0 0 -182.15c0,-69.64 16.51,-138.39 49.55,-206.26 33.03,-67.86 76.34,-130.36 129.91,-187.5 53.58,-57.15 113.4,-113.85 179.48,-170.1 66.06,-56.25 133.48,-111.61 202.24,-166.08 68.75,-54.46 133.03,-108.93 192.86,-163.39 59.82,-54.47 112.5,-112.95 158.04,-175.46 45.54,-62.5 75.45,-125.9 89.73,-190.18 14.29,-42.86 17.86,-88.4 10.72,-136.61 -7.15,-48.22 -20.54,-91.97 -40.18,-131.26 -19.65,-39.28 -52.68,-71.87 -99.11,-97.77 -46.43,-25.89 -102.68,-38.84 -168.76,-38.84 -103.57,0 -196.43,31.26 -278.58,93.76 -82.14,62.5 -135.71,142.41 -160.72,239.74 -25,97.32 -16.07,204.91 26.79,322.77zm3025.54 -238.39c84.83,150 127.24,313.39 127.24,490.19 0,176.79 -42.41,340.18 -127.24,490.19 -84.82,150.01 -200,268.76 -345.54,356.26 -145.55,87.51 -304.03,131.26 -475.47,131.26 -171.43,0 -329.92,-43.75 -475.46,-131.26 -145.54,-87.5 -260.72,-206.25 -345.55,-356.26 -84.82,-150.01 -127.23,-313.4 -127.23,-490.19 0,-176.8 42.41,-340.19 127.23,-490.19 84.83,-150.01 200.01,-268.77 345.55,-356.27 145.54,-87.5 304.03,-131.25 475.46,-131.25 171.44,0 329.92,43.75 475.47,131.25 145.54,87.5 260.72,206.26 345.54,356.27zm-1315.22 20.08c-50.89,143.76 -76.34,300.46 -76.34,470.11 0,169.64 25.45,326.35 76.34,470.1 50.89,143.76 120.09,257.6 207.6,341.53 87.5,83.93 183.03,125.9 286.61,125.9 103.58,0 199.11,-41.97 286.62,-125.9 87.5,-83.93 156.7,-197.77 207.6,-341.53 50.89,-143.75 76.34,-300.46 76.34,-470.1 0,-169.65 -25.45,-326.35 -76.34,-470.11 -50.9,-143.76 -120.1,-257.59 -207.6,-341.52 -87.51,-83.93 -183.04,-125.91 -286.62,-125.91 -103.58,0 -199.11,41.98 -286.61,125.91 -87.51,83.93 -156.71,197.76 -207.6,341.52zm1983.56 218.31l-340.19 -200.89c66.07,-157.15 165.18,-279.03 297.32,-365.64 132.15,-86.61 283.94,-129.91 455.37,-129.91 105.37,0 199.12,13.38 281.26,40.17 82.15,26.79 147.33,62.96 195.54,108.49 48.22,45.53 84.38,94.2 108.5,145.98 24.1,51.8 36.16,105.36 36.16,160.73 0,87.5 -26.79,172.77 -80.36,255.81 -53.58,83.04 -120.55,155.36 -200.91,216.97 -80.35,61.6 -170.98,124.11 -271.88,187.51 -100.89,63.39 -196.44,120.98 -286.62,172.76 -90.18,51.8 -173.66,108.05 -250.45,168.76 -76.79,60.72 -129.47,118.75 -158.04,174.11l822.35 0c39.29,0 66.07,0 80.36,0 14.28,0 33.48,-2.68 57.59,-8.03 24.11,-5.36 42.86,-13.83 56.25,-25.45 13.39,-11.6 28.57,-27.68 45.54,-48.21 16.96,-20.54 35.26,-46.88 54.91,-79.02l50.9 -91.08 40.18 0 -88.4 452.69c-3.58,16.08 -11.61,29.03 -24.11,38.85 -12.5,9.81 -27.68,14.73 -45.53,14.73l-1127.72 0 0 -182.15c0,-69.64 16.52,-138.39 49.55,-206.26 33.04,-67.86 76.35,-130.36 129.92,-187.5 53.58,-57.15 113.39,-113.85 179.47,-170.1 66.07,-56.25 133.48,-111.61 202.24,-166.08 68.75,-54.46 133.04,-108.93 192.86,-163.39 59.82,-54.47 112.5,-112.95 158.05,-175.46 45.53,-62.5 75.45,-125.9 89.73,-190.18 14.28,-42.86 17.85,-88.4 10.72,-136.61 -7.15,-48.22 -20.55,-91.97 -40.19,-131.26 -19.64,-39.28 -52.68,-71.87 -99.11,-97.77 -46.43,-25.89 -102.68,-38.84 -168.76,-38.84 -103.56,0 -196.43,31.26 -278.57,93.76 -82.15,62.5 -135.72,142.41 -160.73,239.74 -25,97.32 -16.07,204.91 26.8,322.77zm1264.32 672.35l340.19 -184.83c-35.71,89.29 -48.21,176.79 -37.5,262.51 10.72,85.71 35.72,162.06 75,229.02 39.29,66.97 92.41,119.65 159.39,158.05 66.96,38.39 138.84,54.91 215.63,49.55 107.14,-7.14 197.33,-60.27 270.54,-159.38 73.22,-99.11 107.15,-214.74 101.79,-346.89 -3.57,-123.21 -29.91,-227.68 -79.02,-313.4 -49.1,-85.72 -112.05,-147.32 -188.85,-184.83 -76.78,-37.5 -162.5,-59.37 -257.14,-65.62 -94.65,-6.25 -190.64,3.57 -287.96,29.46 -97.33,25.89 -190.64,63.84 -279.92,113.84l133.93 -945.57c80.36,0 200.91,0 361.62,0 160.72,0 281.26,0 361.62,0 23.22,0 47.77,4.92 73.66,14.74 25.9,9.82 46.88,19.64 62.95,29.46 16.07,9.83 32.59,17.41 49.55,22.78 16.97,5.35 33.49,3.12 49.56,-6.7 16.07,-9.83 32.14,-29.91 48.22,-60.28l32.14 -61.6 37.51 0 -77.68 259.83c-10.72,37.5 -31.26,56.25 -61.62,56.25l-932.17 0 -88.39 618.77c126.78,-82.14 261.61,-141.97 404.47,-179.47 142.86,-37.5 280.37,-38.39 412.52,-2.67 83.93,23.2 158.93,58.48 225,105.8 66.07,47.32 118.3,101.79 156.7,163.39 38.4,61.62 66.52,128.13 84.38,199.56 17.85,71.43 24.11,142.43 18.75,212.96 -5.35,70.53 -23.21,138.4 -53.57,203.58 -30.36,65.18 -70.99,122.77 -121.88,172.77 -50.89,50 -115.63,90.18 -194.2,120.55 -78.58,30.35 -166.08,45.53 -262.51,45.53 -180.36,0 -336.62,-44.65 -468.77,-133.93 -132.14,-89.29 -226.79,-230.37 -283.94,-423.23z"/>
 </g>
</svg>
