<?xml version="1.0" encoding="UTF-8"?>
<!DOCTYPE svg PUBLIC "-//W3C//DTD SVG 1.1//EN" "http://www.w3.org/Graphics/SVG/1.1/DTD/svg11.dtd">
<!-- Creator: CorelDRAW -->
<svg xmlns="http://www.w3.org/2000/svg" xml:space="preserve" width="170mm" height="40mm" version="1.1" style="shape-rendering:geometricPrecision; text-rendering:geometricPrecision; image-rendering:optimizeQuality; fill-rule:evenodd; clip-rule:evenodd"
viewBox="0 0 17000 4000"
 xmlns:xlink="http://www.w3.org/1999/xlink"
 xmlns:xodm="http://www.corel.com/coreldraw/odm/2003">
 <defs>
  <style type="text/css">
   <![CDATA[
    .fil0 {fill:#332C2B;fill-rule:nonzero}
   ]]>
  </style>
 </defs>
 <g id="Layer_x0020_1">
  <metadata id="CorelCorpID_0Corel-Layer"/>
  <path class="fil0" d="M441.84 1665.06l21.64 0c41.67,0 76.93,-14.43 105.79,-43.27 28.85,-28.86 43.27,-64.12 43.27,-105.79l0 -1307.88c0,-41.67 -14.42,-76.93 -43.27,-105.78 -28.86,-28.85 -64.12,-43.27 -105.79,-43.27l-105.78 0c-72.13,0 -125.82,9.61 -161.08,28.84 -35.26,19.24 -71.33,64.92 -108.19,137.05l-52.89 105.78 -36.07 0 55.3 -262.06c3.2,-14.43 10.42,-26.04 21.64,-34.86 11.21,-8.82 24.04,-13.22 38.47,-13.22 443.97,0 887.94,0 1331.92,0 14.42,0 27.24,4.4 38.46,13.22 11.22,8.82 18.43,20.43 21.64,34.86l52.89 262.06 -36.07 0 -52.89 -105.78c-35.26,-72.13 -70.52,-117.81 -105.78,-137.05 -35.26,-19.23 -88.96,-28.84 -161.08,-28.84l-108.19 0c-40.07,0 -74.53,14.42 -103.37,43.27 -28.86,28.85 -43.28,64.11 -43.28,105.78l0 1307.88c0,41.67 14.42,76.93 43.28,105.79 28.84,28.84 63.3,43.27 103.37,43.27l21.64 0 0 38.47 -675.58 0 0 -38.47zm1202.09 38.47l0 -38.47 21.64 0c40.07,0 74.53,-14.43 103.39,-43.27 28.84,-28.86 43.27,-64.12 43.27,-105.79l0 -1307.88c0,-41.67 -14.43,-76.93 -43.27,-105.78 -28.86,-28.85 -63.32,-43.27 -103.39,-43.27l-21.64 0 0 -38.47 675.58 0 0 38.47 -21.63 0c-41.68,0 -76.94,14.42 -105.79,43.27 -28.85,28.85 -43.27,64.11 -43.27,105.78l0 673.18 819.82 0 0 -673.18c0,-41.67 -14.42,-76.93 -43.27,-105.78 -28.85,-28.85 -63.31,-43.27 -103.39,-43.27l-21.63 0 0 -38.47 675.57 0 0 38.47 -21.63 0c-41.68,0 -76.94,14.42 -105.79,43.27 -28.85,28.85 -43.27,64.11 -43.27,105.78l0 1307.88c0,41.67 14.42,76.93 43.27,105.79 28.85,28.84 64.11,43.27 105.79,43.27l21.63 0 0 38.47 -675.57 0 0 -38.47 21.63 0c40.08,0 74.54,-14.43 103.39,-43.27 28.85,-28.86 43.27,-64.12 43.27,-105.79l0 -596.24 -819.82 0 0 596.24c0,41.67 14.42,76.93 43.27,105.79 28.85,28.84 64.11,43.27 105.79,43.27l21.63 0 0 38.47 -675.58 0zm1957.01 0l0 -38.47 21.64 0c40.07,0 74.53,-14.43 103.38,-43.27 28.85,-28.86 43.28,-64.12 43.28,-105.79l0 -1307.88c0,-41.67 -14.43,-76.93 -43.28,-105.78 -28.85,-28.85 -63.31,-43.27 -103.38,-43.27l-21.64 0 0 -38.47c107.39,0 511.29,0 1211.71,0 32.06,0 52.09,16.02 60.11,48.08l62.5 262.06 -36.06 0 -60.1 -105.78c-41.68,-70.53 -79.34,-115.81 -113,-135.84 -33.66,-20.04 -85.75,-30.05 -156.27,-30.05l-314.95 0c-41.67,0 -76.93,14.42 -105.78,43.27 -28.86,28.85 -43.28,64.11 -43.28,105.78l0 673.18 396.69 0c40.07,0 69.72,-13.63 88.96,-40.87 19.23,-27.25 24.84,-58.51 16.82,-93.77l-19.23 -88.95 36.07 0 129.82 437.56 -38.47 0 -40.87 -76.94c-33.66,-65.71 -86.55,-98.57 -158.67,-98.57l-411.12 0 0 596.24c0,41.67 14.42,76.93 43.28,105.79 28.85,28.84 64.11,43.27 105.78,43.27l377.46 0c70.52,0 122.61,-10.02 156.27,-30.05 33.65,-20.04 71.32,-65.32 112.99,-135.84l60.11 -105.78 36.06 0 -62.51 262.05c-8.01,32.06 -28.05,48.09 -60.1,48.09 -735.68,0 -1160.42,0 -1274.22,0zm2308.02 -1644.46l0 -38.47 211.57 0c161.88,0 277.28,92.16 346.2,276.48l456.8 1218.92 170.69 -593.83 -278.88 -745.3c-12.83,-36.86 -34.46,-65.72 -64.91,-86.55 -30.46,-20.83 -64.92,-31.25 -103.39,-31.25l-12.02 0 0 -38.47 211.57 0c160.28,0 274.88,92.16 343.8,276.48l456.8 1218.92 250.03 -853.49c24.04,-75.33 34.46,-149.46 31.26,-222.38 -3.21,-72.93 -11.62,-131.83 -25.25,-176.71 -13.62,-44.88 -28.05,-90.56 -43.27,-137.04 -15.23,-46.48 -22.04,-81.74 -20.44,-105.78l281.29 0c-44.88,152.26 -115.8,395.48 -212.77,729.67 -96.97,334.18 -170.29,589.42 -219.98,765.73 -11.22,38.47 -0.4,72.93 32.45,103.38 32.86,30.45 70.92,45.68 114.2,45.68l21.64 0 0 38.47 -302.93 0c-112.2,0 -194.74,-71.33 -247.63,-213.97l-189.93 -507.29 -153.87 533.73c-11.21,38.47 0,72.93 33.66,103.38 33.66,30.45 71.33,45.68 113,45.68l21.63 0 0 38.47 -300.52 0c-112.19,0 -194.74,-71.33 -247.63,-213.97l-490.45 -1312.69c-14.43,-36.86 -36.47,-65.72 -66.12,-86.55 -29.65,-20.83 -63.71,-31.25 -102.17,-31.25l-14.43 0zm2308.02 1644.46l0 -38.47 21.63 0c40.08,0 74.53,-14.43 103.39,-43.27 28.85,-28.86 43.27,-64.12 43.27,-105.79l0 -1307.88c0,-41.67 -14.42,-76.93 -43.27,-105.78 -28.86,-28.85 -63.31,-43.27 -103.39,-43.27l-21.63 0 0 -38.47c107.39,0 511.29,0 1211.71,0 32.05,0 52.09,16.02 60.1,48.08l62.51 262.06 -36.06 0 -60.11 -105.78c-41.67,-70.53 -79.34,-115.81 -113,-135.84 -33.65,-20.04 -85.74,-30.05 -156.26,-30.05l-314.95 0c-41.68,0 -76.94,14.42 -105.78,43.27 -28.86,28.85 -43.28,64.11 -43.28,105.78l0 673.18 396.69 0c40.07,0 69.72,-13.63 88.95,-40.87 19.24,-27.25 24.85,-58.51 16.83,-93.77l-19.23 -88.95 36.06 0 129.83 437.56 -38.47 0 -40.87 -76.94c-33.66,-65.71 -86.55,-98.57 -158.67,-98.57l-411.12 0 0 596.24c0,41.67 14.42,76.93 43.28,105.79 28.84,28.84 64.1,43.27 105.78,43.27l377.45 0c70.53,0 122.62,-10.02 156.28,-30.05 33.65,-20.04 71.32,-65.32 112.99,-135.84l60.11 -105.78 36.06 0 -62.51 262.05c-8.01,32.06 -28.05,48.09 -60.1,48.09 -735.68,0 -1160.43,0 -1274.22,0zm2195.02 0l-675.58 0 0 -38.47 21.64 0c40.07,0 74.53,-14.43 103.39,-43.27 28.84,-28.86 43.27,-64.12 43.27,-105.79l0 -1307.88c0,-41.67 -14.43,-76.93 -43.27,-105.78 -28.86,-28.85 -63.32,-43.27 -103.39,-43.27l-21.64 0 0 -38.47 675.58 0c129.83,0 248.04,24.04 354.62,72.13 106.58,48.08 192.34,111.79 257.25,191.13 64.91,79.33 115.4,169.09 151.46,269.27 36.07,100.17 54.49,203.14 55.3,308.93 0.8,105.79 -16.43,208.77 -51.69,308.94 -35.26,100.18 -85.75,189.93 -151.47,269.27 -65.71,79.33 -151.86,143.05 -258.45,191.13 -106.58,48.08 -225.59,72.13 -357.02,72.13zm0 -1644.46l-21.63 0c-41.68,0 -76.94,14.42 -105.79,43.27 -28.85,28.85 -43.27,64.11 -43.27,105.78l0 1307.88c0,41.67 14.42,76.93 43.27,105.79 28.85,28.84 64.11,43.27 105.79,43.27l21.63 0c80.14,0 153.07,-23.24 218.79,-69.72 65.71,-46.48 118.6,-106.99 158.67,-181.52 40.07,-74.53 70.92,-159.87 92.56,-256.05 21.64,-96.16 32.45,-194.73 32.45,-295.71 0,-100.97 -10.81,-199.55 -32.45,-295.71 -21.64,-96.17 -52.49,-181.52 -92.56,-256.05 -40.07,-74.53 -92.96,-135.03 -158.67,-181.52 -65.72,-46.47 -138.65,-69.71 -218.79,-69.71zm1596.38 1644.46l-675.57 0 0 -38.47 21.63 0c40.08,0 74.53,-14.43 103.39,-43.27 28.85,-28.86 43.27,-64.12 43.27,-105.79l0 -1307.88c0,-41.67 -14.42,-76.93 -43.27,-105.78 -28.86,-28.85 -63.31,-43.27 -103.39,-43.27l-21.63 0 0 -38.47 675.57 0c129.83,0 248.04,24.04 354.62,72.13 106.58,48.08 192.34,111.79 257.25,191.13 64.91,79.33 115.4,169.09 151.46,269.27 36.07,100.17 54.5,203.14 55.3,308.93 0.8,105.79 -16.43,208.77 -51.69,308.94 -35.26,100.18 -85.75,189.93 -151.46,269.27 -65.72,79.33 -151.87,143.05 -258.46,191.13 -106.58,48.08 -225.59,72.13 -357.02,72.13zm0 -1644.46l-21.63 0c-41.68,0 -76.94,14.42 -105.79,43.27 -28.85,28.85 -43.27,64.11 -43.27,105.78l0 1307.88c0,41.67 14.42,76.93 43.27,105.79 28.85,28.84 64.11,43.27 105.79,43.27l21.63 0c80.14,0 153.07,-23.24 218.79,-69.72 65.71,-46.48 118.6,-106.99 158.67,-181.52 40.07,-74.53 70.92,-159.87 92.56,-256.05 21.64,-96.16 32.46,-194.73 32.46,-295.71 0,-100.97 -10.82,-199.55 -32.46,-295.71 -21.64,-96.17 -52.49,-181.52 -92.56,-256.05 -40.07,-74.53 -92.96,-135.03 -158.67,-181.52 -65.72,-46.47 -138.65,-69.71 -218.79,-69.71zm920.81 1644.46l0 -38.47 21.64 0c40.07,0 74.52,-14.43 103.38,-43.27 28.85,-28.86 43.27,-64.12 43.27,-105.79l0 -1307.88c0,-41.67 -14.42,-76.93 -43.27,-105.78 -28.86,-28.85 -63.31,-43.27 -103.38,-43.27l-21.64 0 0 -38.47 675.58 0 0 38.47 -21.64 0c-41.67,0 -76.94,14.42 -105.78,43.27 -28.86,28.85 -43.28,64.11 -43.28,105.78l0 1307.88c0,41.67 14.42,76.93 43.28,105.79 28.84,28.84 64.11,43.27 105.78,43.27l21.64 0 0 38.47 -675.58 0zm800.59 0l0 -38.47 21.64 0c40.07,0 74.53,-14.43 103.38,-43.27 28.85,-28.86 43.28,-64.12 43.28,-105.79l0 -1307.88c0,-41.67 -13.23,-76.93 -39.67,-105.78 -26.45,-28.85 -59.71,-43.27 -99.77,-43.27l-21.64 0 0 -38.47 213.97 0c76.93,0 139.04,22.04 186.32,66.11 47.28,44.08 99.77,114.2 157.48,210.37l735.68 1214.11 0 -1303.07c0,-41.67 -14.43,-76.93 -43.28,-105.78 -28.85,-28.85 -64.11,-43.27 -105.78,-43.27l-21.64 0 0 -38.47 377.46 0 0 38.47 -21.64 0c-40.07,0 -74.53,14.42 -103.38,43.27 -28.85,28.85 -43.27,64.11 -43.27,105.78l0 1307.88c0,41.67 14.42,76.93 43.27,105.79 28.85,28.84 63.31,43.27 103.38,43.27l21.64 0 0 38.47 -300.52 0c-51.29,0 -94.17,-16.83 -128.63,-50.49 -34.46,-33.66 -74.13,-88.16 -119,-163.48l-750.11 -1240.57 0 1267.01c0,41.67 14.42,76.93 43.27,105.79 28.85,28.84 63.31,43.27 103.38,43.27l21.64 0 0 38.47 -377.46 0zm2762.41 -108.19l0 -526.52c0,-41.67 -14.43,-76.93 -43.27,-105.78 -28.85,-28.85 -63.32,-43.28 -103.38,-43.28l-163.49 0 0 -38.46 817.42 0 0 38.46 -21.63 0c-41.68,0 -76.94,14.43 -105.79,43.28 -28.85,28.85 -43.27,64.11 -43.27,105.78l0 447.18c0,41.67 14.42,76.93 43.27,105.79 28.85,28.84 64.11,43.27 105.79,43.27l21.63 0 0 38.47 -413.52 0 -84.14 -52.9c-81.74,35.27 -166.69,52.9 -254.84,52.9 -118.61,0 -229.21,-18.04 -331.79,-54.1 -102.57,-36.06 -192.73,-88.95 -270.46,-158.67 -77.74,-69.72 -138.65,-159.88 -182.72,-270.47 -44.08,-110.6 -66.12,-235.62 -66.12,-375.06 0,-139.44 22.04,-262.85 66.12,-370.24 44.07,-107.39 105.38,-193.54 183.92,-258.45 78.53,-64.91 168.29,-113.8 269.26,-146.66 100.98,-32.85 211.58,-49.28 331.79,-49.28 169.89,0 314.95,26.44 435.16,79.34 14.42,6.41 28.84,4.81 43.27,-4.81 14.42,-9.62 21.64,-22.44 21.64,-38.47l0 -36.06 33.65 0 0 500.07 -33.65 0c-36.87,-147.46 -100.98,-261.26 -192.34,-341.39 -91.36,-80.15 -193.94,-120.21 -307.73,-120.21 -149.06,0 -271.68,68.11 -367.84,204.35 -96.17,136.24 -144.26,330.17 -144.26,581.81 0,250.04 50.09,445.18 150.27,585.42 100.17,140.24 224.78,210.37 373.85,210.37 83.34,0 161.08,-15.23 233.2,-45.68zm-7941.45 1448.66c54.81,96.94 82.22,202.53 82.22,316.78 0,114.24 -27.41,219.84 -82.22,316.77 -54.82,96.94 -129.25,173.68 -223.31,230.23 -94.05,56.54 -196.47,84.82 -307.25,84.82 -110.78,0 -213.2,-28.28 -307.25,-84.82 -94.06,-56.55 -168.49,-133.29 -223.31,-230.23 -54.81,-96.93 -82.22,-202.53 -82.22,-316.77 0,-114.25 27.41,-219.84 82.22,-316.78 54.82,-96.93 129.25,-173.68 223.31,-230.22 94.05,-56.55 196.47,-84.82 307.25,-84.82 110.78,0 213.2,28.27 307.25,84.82 94.06,56.54 168.49,133.29 223.31,230.22zm-849.93 12.99c-32.89,92.89 -49.34,194.16 -49.34,303.79 0,109.63 16.45,210.9 49.34,303.79 32.89,92.9 77.61,166.46 134.15,220.7 56.55,54.24 118.29,81.36 185.22,81.36 66.93,0 128.67,-27.12 185.22,-81.36 56.54,-54.24 101.26,-127.8 134.15,-220.7 32.89,-92.89 49.34,-194.16 49.34,-303.79 0,-109.63 -16.45,-210.9 -49.34,-303.79 -32.89,-92.9 -77.61,-166.47 -134.15,-220.71 -56.55,-54.24 -118.29,-81.36 -185.22,-81.36 -66.93,0 -128.67,27.12 -185.22,81.36 -56.54,54.24 -101.26,127.81 -134.15,220.71zm1004.85 909.64l0 -27.69 15.58 0c28.85,0 53.66,-10.39 74.43,-31.16 20.78,-20.77 31.16,-46.16 31.16,-76.17l0 -941.67c0,-30 -10.38,-55.39 -31.16,-76.16 -20.77,-20.77 -45.58,-31.16 -74.43,-31.16l-15.58 0 0 -27.7c77.32,0 368.13,0 872.43,0 23.08,0 37.5,11.54 43.28,34.62l45 188.68 -25.96 0 -43.28 -76.16c-30,-50.78 -57.12,-83.37 -81.36,-97.8 -24.23,-14.43 -61.73,-21.64 -112.51,-21.64l-226.76 0c-30.01,0 -55.4,10.39 -76.17,31.16 -20.77,20.77 -31.16,46.16 -31.16,76.16l0 484.69 285.62 0c28.85,0 50.2,-9.81 64.05,-29.43 13.85,-19.62 17.89,-42.12 12.11,-67.51l-13.84 -64.05 25.96 0 93.48 315.05 -27.7 0 -29.43 -55.4c-24.23,-47.31 -62.31,-70.97 -114.24,-70.97l-296.01 0 0 429.29c0,30.01 10.39,55.4 31.16,76.17 20.77,20.77 46.16,31.16 76.17,31.16l15.58 0 0 27.69 -486.42 0z"/>
 </g>
</svg>
